<?xml version="1.0" standalone="no"?>
<!DOCTYPE svg PUBLIC "-//W3C//DTD SVG 20010904//EN"
 "http://www.w3.org/TR/2001/REC-SVG-20010904/DTD/svg10.dtd">
<svg version="1.0" xmlns="http://www.w3.org/2000/svg"
 width="700.000000pt" height="700.000000pt" viewBox="0 0 700.000000 700.000000"
 preserveAspectRatio="xMidYMid meet">
<metadata>
Created by potrace 1.14, written by Peter Selinger 2001-2017
</metadata>
<g transform="translate(0.000000,700.000000) scale(0.100000,-0.100000)"
fill="#2563eb" stroke="none">
<path d="M3310 6547 c-3 -3 -41 -8 -85 -11 -44 -4 -87 -9 -95 -11 -8 -2 -40
-6 -71 -10 -31 -3 -67 -8 -80 -11 -13 -2 -40 -7 -59 -10 -19 -3 -42 -7 -50 -9
-8 -2 -28 -7 -45 -10 -317 -55 -722 -225 -1050 -440 -651 -427 -1123 -1105
-1281 -1837 -21 -100 -21 -97 -29 -148 -4 -25 -9 -52 -10 -60 -5 -28 -18 -145
-19 -175 l-1 -29 390 -1 c215 0 395 1 402 3 10 3 68 103 176 302 16 30 33 60
37 65 4 6 24 42 45 80 122 227 361 650 380 673 3 3 268 68 312 76 33 5 34 3
59 -106 1 -5 2 -9 4 -10 1 -2 3 -10 5 -18 1 -8 40 -159 84 -335 45 -176 84
-328 86 -338 2 -10 7 -27 10 -37 3 -10 7 -27 10 -37 2 -10 20 -83 40 -163 20
-80 39 -153 41 -162 9 -39 14 -58 48 -188 44 -170 197 -772 200 -785 8 -45 91
-343 94 -340 2 2 17 64 34 137 16 73 31 142 34 153 3 11 9 40 14 65 5 25 12
56 15 70 3 14 8 36 11 50 4 21 16 71 39 170 6 26 67 292 70 309 11 52 38 170
61 266 14 61 28 121 30 135 3 14 7 33 10 42 3 9 7 27 9 39 8 41 76 341 101
449 14 58 28 116 30 129 3 13 39 171 80 350 42 179 78 337 80 350 7 37 154
671 165 712 9 35 15 39 143 97 146 66 232 99 240 92 4 -5 28 -83 136 -455 33
-115 72 -246 85 -290 13 -44 31 -105 39 -135 8 -30 45 -158 81 -285 37 -126
71 -243 75 -260 9 -31 15 -52 73 -250 49 -164 147 -503 157 -540 5 -16 40
-140 80 -275 39 -135 89 -308 112 -385 22 -77 45 -149 51 -159 9 -18 11 -18
21 -3 11 14 70 80 216 242 30 33 59 65 65 71 5 6 44 49 85 95 145 162 223 234
304 278 l78 43 436 1 c430 2 437 2 436 22 -2 55 -28 226 -50 335 -9 41 -17 82
-19 90 -24 118 -96 342 -158 491 -106 255 -289 542 -503 787 -116 133 -307
316 -387 371 -12 8 -28 21 -35 28 -8 7 -35 27 -60 45 -26 17 -49 34 -52 38 -8
9 -186 122 -266 168 -129 75 -372 184 -529 237 -135 46 -374 105 -490 121 -27
3 -58 8 -69 10 -10 2 -44 6 -75 9 -31 4 -67 9 -81 11 -33 7 -464 16 -470 11z"/>
<path d="M3832 4925 c-6 -22 -16 -60 -23 -85 -7 -25 -13 -49 -15 -55 -1 -5
-14 -59 -29 -120 -21 -87 -93 -400 -110 -475 -4 -16 -64 -284 -70 -310 -15
-64 -68 -298 -70 -310 -4 -20 -46 -200 -51 -222 -2 -10 -6 -27 -8 -38 -36
-163 -181 -799 -191 -840 -13 -52 -17 -69 -30 -137 -3 -16 -8 -36 -11 -45 -3
-9 -6 -25 -9 -35 -2 -10 -24 -110 -50 -223 -26 -113 -49 -214 -51 -225 -3 -11
-8 -38 -13 -60 -38 -178 -53 -243 -60 -261 -10 -23 -43 -40 -241 -125 -82 -36
-138 -55 -144 -49 -7 7 -45 144 -81 290 -2 8 -24 98 -50 200 -26 102 -48 192
-50 200 -4 17 -248 982 -366 1450 -44 173 -82 322 -84 330 -2 8 -15 62 -30
120 -15 58 -29 113 -31 123 -8 32 -12 52 -27 107 l-14 54 -25 -39 c-14 -22
-61 -105 -105 -185 -44 -80 -89 -161 -100 -180 -11 -19 -64 -116 -118 -215
-54 -99 -106 -188 -114 -199 -9 -10 -65 -51 -126 -91 l-110 -72 -388 1 c-214
1 -394 -2 -399 -5 -18 -11 -4 -142 37 -354 5 -25 40 -167 49 -200 1 -5 8 -30
15 -55 63 -229 204 -536 359 -783 65 -103 259 -341 379 -462 459 -468 1101
-790 1760 -885 43 -6 93 -13 111 -15 118 -17 448 -23 575 -11 227 22 314 36
587 101 71 17 306 98 405 140 178 76 458 230 513 282 7 7 18 13 23 13 13 0
107 71 229 174 102 85 281 262 369 364 180 207 361 489 448 697 14 33 34 79
44 102 10 23 19 48 19 55 0 8 4 18 9 24 8 8 42 109 84 249 21 70 66 274 73
332 3 26 7 59 9 73 7 50 17 125 19 135 0 7 -160 11 -460 13 l-462 2 -58 -66
c-33 -37 -75 -84 -94 -104 -44 -47 -87 -95 -170 -189 -76 -86 -94 -106 -169
-187 -31 -33 -96 -104 -144 -157 -56 -60 -98 -98 -115 -102 -60 -12 -80 -15
-167 -20 -49 -2 -96 -1 -102 3 -13 8 -51 132 -176 562 -36 124 -91 313 -123
420 -31 107 -60 209 -64 225 -5 17 -36 125 -70 240 -34 116 -70 242 -81 280
-11 39 -22 77 -24 85 -2 8 -13 47 -24 85 -20 68 -41 140 -116 395 -20 69 -41
139 -45 155 -4 17 -17 57 -27 90 l-20 60 -11 -40z"/>
</g>
</svg>
